<?xml version="1.0" encoding="utf-8"?>
<!-- Generator: Adobe Illustrator 24.0.0, SVG Export Plug-In . SVG Version: 6.00 Build 0)  -->
<svg preserveAspectRatio="none" version="1.1" id="图层_1" xmlns="http://www.w3.org/2000/svg" xmlns:xlink="http://www.w3.org/1999/xlink" x="0px" y="0px"
	 viewBox="0 0 1074 561" style="enable-background:new 0 0 1074 561;" xml:space="preserve">
<style type="text/css">
	.st0{fill:none;stroke:#345497;stroke-miterlimit:10;}
	.fan_border_1{fill:#00FFFF;animation: twinkling 3s linear infinite;}

	@keyframes twinkling{
   0%{
       fill: rgba(0, 255, 255, 1);
   }
   50%{
       fill: rgba(0, 255, 255, 0.4);
   }
	100%{
       fill: rgba(0, 255, 255, 1);
   }
}
</style>
<polygon class="st0" points="288,31 299,54 776,54 791,31 962.5,31 972.5,19.5 1034.5,19.5 1052.5,38.5 1052.5,125.5 1021.5,147.5
	1021.5,413.5 1049.5,440.5 1051.5,523.5 1032.5,544.5 43.5,544.5 25.5,525.5 25.5,439.5 54.5,416.5 54.5,149.5 27.5,124.5
	27.5,36.5 42.5,21.5 100.5,21.5 111.5,32.5 "/>
<g >
	<polygon class="fan_border_1"  points="55,417 57,419 46,428 45,461 31,469 31,525 45,539 72,539 81,530 111,530 104,540 137,540 137,546
		42,546 24,527 24,439 52,414 	"/>
	<polygon class="fan_border_1"  points="35,521 49,521 49,537 	"/>
</g>
<g>
	<polygon class="fan_border_1" points="1021,415 1019,417 1030,426 1031,459 1045,467 1045,523 1031,537 1004,537 995,528 965,528 972,538
		939,538 939,544 1034,544 1052,525 1052,437 1024,412 	"/>
	<polygon class="fan_border_1" points="1041,519 1027,519 1027,535 	"/>
</g>
<g>
	<polygon class="fan_border_1" points="161,32.4 161,39 146,39 139,50 104,51 109,37 100,27 46,27 46,56 33,64 33,123 57,146 57,183 49,183
		49,149 25.5,125.5 25.5,34 42.8,16.8 107,16.8 119.6,29.4 161,29 	"/>
	<path class="fan_border_1" d="M38,118h14v15C52,133,38.5,117.5,38,118z"/>
</g>
<g>
	<polygon class="fan_border_1" points="918.4,32.7 918.4,39.3 933.4,39.3 940.4,50.3 975.4,51.3 970.4,37.3 979.4,27.3 1033.4,27.3
		1033.4,56.3 1046.4,64.3 1046.4,123.3 1022.4,146.3 1022.4,183.3 1030.4,183.3 1030.4,149.3 1053.9,125.8 1053.9,34.3 1036.6,17
		972.4,17 959.8,29.7 918.4,29.3 	"/>
	<path class="fan_border_1" d="M1041.4,118.3h-14v15C1027.4,133.3,1040.9,117.8,1041.4,118.3z"/>
</g>
</svg>
