<?xml version="1.0" encoding="utf-8"?>
<!-- Generator: Adobe Illustrator 24.0.0, SVG Export Plug-In . SVG Version: 6.00 Build 0)  -->
<svg preserveAspectRatio="none" version="1.1" id="图层_1" xmlns="http://www.w3.org/2000/svg" xmlns:xlink="http://www.w3.org/1999/xlink" x="0px" y="0px"
	 viewBox="0 0 1082 543" style="enable-background:new 0 0 1082 543;" xml:space="preserve">
<style type="text/css">
		.st0{fill:none;stroke:#345497;stroke-miterlimit:10;}
	.fan_border_1{fill:#00FFFF;animation: twinkling 3s linear infinite;}

	@keyframes twinkling{
   0%{
       fill: rgba(0, 255, 255, 1);
   }
   50%{
       fill: rgba(0, 255, 255, 0.4);
   }
	100%{
       fill: rgba(0, 255, 255, 1);
   }
}
</style>
<polygon class="st0" points="276.9,20 287.9,43 764.9,43 779.9,20 951.4,20 961.4,8.5 1023.4,8.5 1041.4,27.5 1041.4,114.5
	1010.4,136.5 1010.4,350.5 1038.4,377.5 1040.4,460.5 1021.4,481.5 879.7,481.5 838.6,535.5 732.9,535.5 704.2,425.5 363,425.5
	331.3,535.5 233.8,535.5 182.4,481.5 32.4,481.5 14.4,462.5 14.4,376.5 43.4,353.5 43.4,138.5 16.4,113.5 16.4,25.5 31.4,10.5
	89.4,10.5 100.4,21.5 "/>
<g>
	<polygon class="fan_border_1" points="43.9,354 45.9,356 34.9,365 33.9,398 19.9,406 19.9,462 33.9,476 60.9,476 69.9,467 99.9,467
		92.9,477 125.9,477 125.9,483 30.9,483 12.9,464 12.9,376 40.9,351 	"/>
	<polygon class="fan_border_1" points="23.9,458 37.9,458 37.9,474 	"/>
</g>
<g>
	<polygon class="fan_border_1" points="1009.9,352 1007.9,354 1018.9,363 1019.9,396 1033.9,404 1033.9,460 1019.9,474 992.9,474 983.9,465
		953.9,465 960.9,475 927.9,475 927.9,481 1022.9,481 1040.9,462 1040.9,374 1012.9,349 	"/>
	<polygon class="fan_border_1" points="1029.9,456 1015.9,456 1015.9,472 	"/>
</g>
<g>
	<polygon class="fan_border_1" points="149.9,21.4 149.9,28 134.9,28 127.9,39 92.9,40 97.9,26 88.9,16 34.9,16 34.9,45 21.9,53 21.9,112
		45.9,135 45.9,172 37.9,172 37.9,138 14.4,114.5 14.4,23 31.7,5.7 95.9,5.7 108.6,18.4 149.9,18 	"/>
	<path class="fan_border_1" d="M26.9,107h14v15C40.9,122,27.4,106.5,26.9,107z"/>
</g>
<g>
	<polygon class="fan_border_1" points="907.3,21.7 907.3,28.3 922.3,28.3 929.3,39.3 964.3,40.3 959.3,26.3 968.3,16.3 1022.3,16.3
		1022.3,45.3 1035.3,53.3 1035.3,112.3 1011.3,135.3 1011.3,172.3 1019.3,172.3 1019.3,138.3 1042.8,114.8 1042.8,23.3 1025.6,6
		961.3,6 948.7,18.7 907.3,18.3 	"/>
	<path class="fan_border_1" d="M1030.3,107.3h-14v15C1016.3,122.3,1029.8,106.8,1030.3,107.3z"/>
</g>
</svg>
