<?xml version="1.0" standalone="no"?><!DOCTYPE svg PUBLIC "-//W3C//DTD SVG 1.1//EN" "http://www.w3.org/Graphics/SVG/1.1/DTD/svg11.dtd"><svg t="1689746864295" class="icon" viewBox="0 0 1024 1024" version="1.1" xmlns="http://www.w3.org/2000/svg" p-id="7019" xmlns:xlink="http://www.w3.org/1999/xlink" width="200" height="200"><path d="M477.090909 395.636364h69.818182v232.727272h-69.818182V395.636364z m0 279.272727h69.818182v69.864727h-69.818182V674.909091z m54.760727-570.600727L974.312727 850.385455a22.388364 22.388364 0 0 1-8.261818 30.906181 23.272727 23.272727 0 0 1-11.566545 3.072H69.515636A22.807273 22.807273 0 0 1 46.545455 861.765818c0-4.002909 1.070545-7.912727 3.118545-11.403636L492.148364 104.331636a23.179636 23.179636 0 0 1 39.703272 0z m-29.905454 145.640727L196.375273 773.771636a11.636364 11.636364 0 0 0 10.077091 17.501091h611.095272a11.636364 11.636364 0 0 0 10.053819-17.501091L522.030545 249.949091a11.636364 11.636364 0 0 0-20.084363 0z" fill="#ffffff" p-id="7020"></path></svg>
