<svg id="图层_1" data-name="图层 1" xmlns="http://www.w3.org/2000/svg" xmlns:xlink="http://www.w3.org/1999/xlink" viewBox="0 0 56.362 56.471"><defs><style>.cls-1{fill:none;}.cls-2{clip-path:url(#clip-path);}</style><clipPath id="clip-path"><rect class="cls-1" x="1" width="54.111" height="56.471"/></clipPath></defs><title>按钮图标</title><g class="cls-2"><path d="M33.164,52.367a2.014,2.014,0,0,1,0,4.028H7.032A6.041,6.041,0,0,1,.991,50.353V6.048A6.041,6.041,0,0,1,7.032.006H41.268A6.042,6.042,0,0,1,47.31,6.048a2.014,2.014,0,0,1-4.028,0,2.014,2.014,0,0,0-2.014-2.014H7.032A2.014,2.014,0,0,0,5.018,6.048V50.353a2.014,2.014,0,0,0,2.014,2.014ZM47.31,32.843v9.229a2.014,2.014,0,0,1-4.028,0V32.843a2.014,2.014,0,1,1,4.028,0Zm0,0"/><path d="M13.074,16.117a2.014,2.014,0,1,1,0-4.027h14.1a2.014,2.014,0,1,1,0,4.027Zm0,10.07a2.014,2.014,0,1,1,0-4.028h8.055a2.014,2.014,0,0,1,0,4.028ZM35.19,54.293a2.014,2.014,0,0,1-4.027,0l.036-7.967a6.042,6.042,0,0,1,6.042-6.042l8.039.073a2.014,2.014,0,1,1,0,4.027l-8.039-.072a2.013,2.013,0,0,0-2.014,2.014Zm0,0"/><path d="M35.1,55.618a2.015,2.015,0,0,1-2.79-2.908L43.659,41.823a2.014,2.014,0,1,1,2.787,2.906ZM50.387,17.032a1.978,1.978,0,0,0,.209-2.795L50.57,14.2a2.013,2.013,0,0,0-2.825-.211l-27.1,23.036-.957,3.263,3.672-.286Zm3.249-5.438a6,6,0,0,1-.592,8.464L25.473,43.5a2.013,2.013,0,0,1-1.147.474l-7.234.559A2.014,2.014,0,0,1,15,41.955l1.948-6.637a2.008,2.008,0,0,1,.628-.967L45.133,10.926a6.041,6.041,0,0,1,8.476.636Zm0,0"/></g></svg>