<?xml version="1.0" standalone="no"?><!DOCTYPE svg PUBLIC "-//W3C//DTD SVG 1.1//EN" "http://www.w3.org/Graphics/SVG/1.1/DTD/svg11.dtd"><svg t="1697445708607" class="icon" viewBox="0 0 1024 1024" version="1.1" xmlns="http://www.w3.org/2000/svg" p-id="2891" xmlns:xlink="http://www.w3.org/1999/xlink" width="200" height="200"><path d="M932.8 196.8H515.2L448 107.2H91.2c-38.4 0-68.8 30.4-68.8 68.8v680c0 38.4 30.4 68.8 68.8 68.8h843.2c38.4 0 68.8-30.4 68.8-68.8v-592c0-36.8-32-67.2-70.4-67.2z m24 660.8c0 12.8-11.2 22.4-22.4 22.4H91.2c-12.8 0-22.4-11.2-22.4-22.4V176c0-12.8 11.2-22.4 22.4-22.4h334.4l14.4 19.2 148.8 203.2h369.6v481.6z m0-528H609.6l-64-86.4h385.6c12.8 0 22.4 11.2 22.4 22.4v64zM707.2 788.8L624 705.6c22.4-28.8 35.2-65.6 35.2-104 0-96-78.4-172.8-172.8-172.8s-172.8 78.4-172.8 172.8 78.4 172.8 172.8 172.8c40 0 76.8-14.4 107.2-36.8l83.2 83.2c9.6 9.6 24 9.6 32 0 6.4-8 6.4-22.4-1.6-32zM356.8 601.6c0-70.4 57.6-128 128-128s128 57.6 128 128-57.6 128-128 128-128-59.2-128-128z" fill="#FFFFFF" p-id="2892"></path></svg>
