<svg id="图层_1" data-name="图层 1" xmlns="http://www.w3.org/2000/svg" viewBox="0 0 479 556.89"><defs><style>.cls-1{fill:aqua;}</style></defs><title>yanzhengma</title><path class="cls-1" d="M238.508,550.057c-81.963,0-234.46-122.162-234.46-237.709V91.806a10.008,10.008,0,0,1,10.028-9.784L27.359,81.8c.507,0,52.577-1.047,106.257-22.3,55.088-21.741,90.6-46.812,90.97-47.069l7.821-5.547a10.561,10.561,0,0,1,6.067-1.919,10.393,10.393,0,0,1,6.031,1.885l7.972,5.594c.361.257,35.9,25.3,90.923,47.069,53.731,21.255,105.8,22.3,106.337,22.3l13.176.226a10,10,0,0,1,10.023,9.784l.112,220.542c0,115.534-152.523,237.709-234.559,237.709Zm198.367-432.57c-20.156-1.515-62.561-6.719-106.612-24.161a537.266,537.266,0,0,1-91.755-46.635,539.787,539.787,0,0,1-91.721,46.635c-43.974,17.4-86.26,22.607-106.691,24.161V312.348c0,90.617,132.861,201.381,198.412,201.381,25.406,0,74.913-20.619,123.579-65.889C409,404.236,437,353.574,437,312.361ZM219.7,349.41a17.733,17.733,0,0,1-12.724,5.352,17.966,17.966,0,0,1-12.776-5.344l-54.126-54.475a18.288,18.288,0,0,1,0-25.7,17.922,17.922,0,0,1,25.52,0l41.382,41.62L311.464,205.624a17.888,17.888,0,0,1,25.5,0,18.2,18.2,0,0,1,0,25.7Zm0,0"/></svg>