<?xml version="1.0" encoding="utf-8"?>
<!-- Generator: Adobe Illustrator 24.0.0, SVG Export Plug-In . SVG Version: 6.00 Build 0)  -->
<svg preserveAspectRatio="none" version="1.1" id="图层_1" xmlns="http://www.w3.org/2000/svg" xmlns:xlink="http://www.w3.org/1999/xlink" x="0px" y="0px"
	 viewBox="0 0 371 56" style="enable-background:new 0 0 371 56;" xml:space="preserve">
<style type="text/css">
	.st0{fill:none;stroke:#00FFFF;stroke-width:2;stroke-miterlimit:10;}
	.st1{fill:#00FFFF;}
</style>
<circle class="st0" cx="7.5" cy="30.5" r="4"/>
<polyline class="st0" points="11,31 138,31 145,37 357,37 "/>
<circle class="st0" cx="362.1" cy="35.8" r="4"/>
<polygon class="st1" points="156.4,38 153.3,38 147.6,28 150.7,28 "/>
<polygon class="st1" points="165.6,38 162.5,38 156.7,28 159.8,28 "/>
<polygon class="st1" points="173.6,38 170.5,38 164.7,28 167.8,28 "/>
<polygon class="st1" points="182.6,38 179.5,38 173.7,28 176.8,28 "/>
<polygon class="st1" points="189.6,38 186.5,38 180.7,28 183.8,28 "/>
<polygon class="st1" points="198.6,38 195.5,38 189.7,28 192.8,28 "/>
</svg>
