<svg id="图层_1" data-name="图层 1" xmlns="http://www.w3.org/2000/svg" xmlns:xlink="http://www.w3.org/1999/xlink" viewBox="0 0 877.816 72.262"><defs><style>.cls-1{fill:none;}.cls-2{clip-path:url(#clip-path);}.cls-3{fill:#3462ae;}.cls-4{clip-path:url(#clip-path-2);}</style><clipPath id="clip-path"><polygon class="cls-1" points="-3.202 20.537 31.1 -14.749 419.244 -14.621 441.565 2.475 440.562 160.904 387.59 160.904 363.659 199.674 92.832 198.451 65.056 154.128 -3.603 153.086 -3.202 20.537"/></clipPath><clipPath id="clip-path-2"><polygon class="cls-1" points="431.599 20.537 465.901 -14.749 854.045 -14.621 876.365 2.475 875.363 160.904 822.39 160.904 798.46 199.674 527.633 198.451 499.856 154.128 431.198 153.086 431.599 20.537"/></clipPath></defs><title>斜条纹06</title><g class="cls-2"><polygon class="cls-3" points="47.753 71.929 35.958 71.929 63.458 0 75.252 0 47.753 71.929"/><polygon class="cls-3" points="70.642 71.929 58.848 71.929 86.347 0 98.141 0 70.642 71.929"/><polygon class="cls-3" points="93.532 71.929 81.737 71.929 109.236 0 121.031 0 93.532 71.929"/><polygon class="cls-3" points="1.974 71.929 -9.821 71.929 17.679 0 29.473 0 1.974 71.929"/><polygon class="cls-3" points="24.863 71.929 13.069 71.929 40.568 0 52.363 0 24.863 71.929"/><polygon class="cls-3" points="162.2 71.929 150.405 71.929 177.905 0 189.699 0 162.2 71.929"/><polygon class="cls-3" points="185.089 71.929 173.295 71.929 200.794 0 212.588 0 185.089 71.929"/><polygon class="cls-3" points="207.979 71.929 196.184 71.929 223.683 0 235.478 0 207.979 71.929"/><polygon class="cls-3" points="116.421 71.929 104.626 71.929 132.126 0 143.92 0 116.421 71.929"/><polygon class="cls-3" points="139.31 71.929 127.516 71.929 155.015 0 166.81 0 139.31 71.929"/><polygon class="cls-3" points="276.647 71.929 264.852 71.929 292.352 0 304.146 0 276.647 71.929"/><polygon class="cls-3" points="299.536 71.929 287.742 71.929 315.241 0 327.036 0 299.536 71.929"/><polygon class="cls-3" points="322.426 71.929 310.631 71.929 338.13 0 349.925 0 322.426 71.929"/><polygon class="cls-3" points="230.868 71.929 219.074 71.929 246.573 0 258.367 0 230.868 71.929"/><polygon class="cls-3" points="253.757 71.929 241.963 71.929 269.462 0 281.257 0 253.757 71.929"/><polygon class="cls-3" points="391.094 71.929 379.299 71.929 406.799 0 418.593 0 391.094 71.929"/><polygon class="cls-3" points="413.983 71.929 402.189 71.929 429.688 0 441.483 0 413.983 71.929"/><polygon class="cls-3" points="436.873 71.929 425.078 71.929 452.578 0 464.372 0 436.873 71.929"/><polygon class="cls-3" points="345.315 71.929 333.521 71.929 361.02 0 372.814 0 345.315 71.929"/><polygon class="cls-3" points="368.205 71.929 356.41 71.929 383.909 0 395.704 0 368.205 71.929"/></g><g class="cls-4"><polygon class="cls-3" points="482.553 71.929 470.759 71.929 498.258 0 510.053 0 482.553 71.929"/><polygon class="cls-3" points="505.443 71.929 493.648 71.929 521.147 0 532.942 0 505.443 71.929"/><polygon class="cls-3" points="528.332 71.929 516.538 71.929 544.037 0 555.831 0 528.332 71.929"/><polygon class="cls-3" points="436.774 71.929 424.98 71.929 452.479 0 464.274 0 436.774 71.929"/><polygon class="cls-3" points="459.664 71.929 447.869 71.929 475.369 0 487.163 0 459.664 71.929"/><polygon class="cls-3" points="597 71.929 585.206 71.929 612.705 0 624.5 0 597 71.929"/><polygon class="cls-3" points="619.89 71.929 608.095 71.929 635.595 0 647.389 0 619.89 71.929"/><polygon class="cls-3" points="642.779 71.929 630.985 71.929 658.484 0 670.278 0 642.779 71.929"/><polygon class="cls-3" points="551.221 71.929 539.427 71.929 566.926 0 578.721 0 551.221 71.929"/><polygon class="cls-3" points="574.111 71.929 562.316 71.929 589.816 0 601.61 0 574.111 71.929"/><polygon class="cls-3" points="711.447 71.929 699.653 71.929 727.152 0 738.947 0 711.447 71.929"/><polygon class="cls-3" points="734.337 71.929 722.542 71.929 750.042 0 761.836 0 734.337 71.929"/><polygon class="cls-3" points="757.226 71.929 745.432 71.929 772.931 0 784.725 0 757.226 71.929"/><polygon class="cls-3" points="665.669 71.929 653.874 71.929 681.373 0 693.168 0 665.669 71.929"/><polygon class="cls-3" points="688.558 71.929 676.763 71.929 704.263 0 716.057 0 688.558 71.929"/><polygon class="cls-3" points="825.894 71.929 814.1 71.929 841.599 0 853.394 0 825.894 71.929"/><polygon class="cls-3" points="848.784 71.929 836.989 71.929 864.489 0 876.283 0 848.784 71.929"/><polygon class="cls-3" points="871.673 71.929 859.879 71.929 887.378 0 899.173 0 871.673 71.929"/><polygon class="cls-3" points="780.116 71.929 768.321 71.929 795.82 0 807.615 0 780.116 71.929"/><polygon class="cls-3" points="803.005 71.929 791.211 71.929 818.71 0 830.504 0 803.005 71.929"/></g></svg>