<?xml version="1.0" encoding="utf-8"?>
<!-- Generator: Adobe Illustrator 24.0.0, SVG Export Plug-In . SVG Version: 6.00 Build 0)  -->
<svg preserveAspectRatio="none" version="1.1" id="图层_1" xmlns="http://www.w3.org/2000/svg" xmlns:xlink="http://www.w3.org/1999/xlink" x="0px" y="0px"
	 viewBox="0 0 801 45" style="enable-background:new 0 0 801 45;" xml:space="preserve">
<style type="text/css">
	.st0{fill:none;stroke:#2796f3;box-shadow: 20px 20px 25px #888;}
	.st1{fill:#1F80C1;filter:drop-shadow(-25px 25px 25px #3159db);}
	.mes_line1{
		fill:#ffffff;
		box-shadow: -5px -5px 5px #888;
		animation: mesBounce 3s linear infinite;
	}
	.mes_st1 {
		fill:#4bc8fc;
		animation: mesBounce 3s linear infinite;
	}
	.mes_st2{
		fill:#2796f3;
		animation: mesBounce 3s linear infinite;
	}
	@keyframes mesBounce {
        0% {
          opacity: 0.3;
        }
        50% {
          opacity: 1;
        }
				100% {
						opacity: 0.3;
					}
      }
</style>
	<!-- 这是一个定义标签 -->
	<defs >
		<filter id="f1" x="0" y="0" width="200%" height="200%">
      <feOffset result="offOut" in="SourceGraphic" dx="0" dy="0" />
			<feGaussianBlur result="set" in="suo" stdDeviation="10" />
			<feBlend in="SourceGraphic" in2="suo" mode="lighten" />
    </filter>
	</defs>
<g>
	<polyline class="st0" points="15,32 699,33 714,11 801,11 	"  filter="url(#f1)"/>
	<path class="mes_line1" filter="url(#f1)" d="M66,34H16c-0.6,0-1-0.5-1-1v-2c0-0.5,0.4-1,1-1h50c0.6,0,1,0.5,1,1v2C67,33.5,66.6,34,66,34z"/>
	<polygon class="mes_st1" points="669.8,27 648.8,27 655.2,16 676.2,16"  filter="url(#f1)"/>
	<polygon class="mes_st2" points="644.8,27 636.8,27 643.2,16 651.2,16"  filter="url(#f1)"/>
	<polygon class="mes_st2" points="630.8,27 626.8,27 633.2,16 637.2,16" filter="url(#f1)"/>
</g>
</svg>
